<svg version="1.1" id="Layer_1" xmlns="http://www.w3.org/2000/svg" xmlns:xlink="http://www.w3.org/1999/xlink" x="0px" y="0px"
	 width="100%" viewBox="40 60 280 240" enable-background="new 40 60 280 240" xml:space="preserve">
<g transform="translate(10, 0)">
<path fill="#000000" stroke="#000000" stroke-width="8" stroke-linecap="round" stroke-linejoin="round" opacity="1.000000"
	d="
M186.581268,285.091187
	C183.016541,283.681732 180.766388,281.156433 178.297089,278.941437
	C152.989090,256.239899 127.598747,233.617676 105.816238,207.349930
	C103.537735,204.602264 100.787781,202.139664 99.205055,198.182007
	C107.143463,197.382156 113.514328,196.681458 119.518616,203.901260
	C139.382645,227.786621 162.801910,248.191681 185.874222,268.891571
	C188.295090,271.063477 190.155685,270.662048 192.349258,268.683075
	C211.647491,251.272995 231.165314,234.102142 248.797470,214.935135
	C260.882385,201.798264 272.674011,188.434067 282.023468,173.147278
	C287.444672,164.283371 291.629303,154.936996 292.789062,144.397079
	C295.501770,119.744820 275.607513,98.212608 257.882111,92.004814
	C234.783478,83.915230 209.967682,91.872910 195.977951,111.922073
	C190.841003,119.284019 187.295029,119.206718 182.026871,111.890442
	C168.851013,93.592194 150.706802,86.045456 128.828354,89.975296
	C105.724922,94.125160 91.679359,109.159447 85.907516,131.560593
	C83.632790,140.389053 85.218338,149.433334 88.416985,158.049332
	C89.039459,159.726044 90.213661,161.270279 89.815712,163.634918
	C86.445137,164.964569 82.799118,164.443527 79.276154,164.146820
	C76.598358,163.921295 76.382935,161.218704 75.753273,159.225555
	C67.554115,133.271637 75.044685,111.340736 94.377548,93.591888
	C120.970253,69.178001 159.976868,70.786591 185.394989,96.387871
	C186.438065,97.438461 187.551025,98.419670 188.539841,99.347290
	C190.655685,99.073196 191.489563,97.473007 192.634628,96.340141
	C211.714523,77.463875 234.529022,71.837944 259.737549,79.785118
	C284.872498,87.709106 299.990448,105.999771 304.856140,131.728912
	C307.815063,147.375198 302.759552,162.042160 295.012939,175.713821
	C284.576172,194.133255 270.644684,209.853683 256.360199,225.245697
	C237.861816,245.178329 217.310852,262.979248 197.244080,281.275970
	C194.331039,283.932037 191.245819,286.114838 186.581268,285.091187
z"/>
<path fill="#000000" stroke="#000000" stroke-width="8" stroke-linecap="round" stroke-linejoin="round" opacity="1.000000"
	d="
M118.999512,187.310486
	C101.513885,187.304581 84.528114,187.298645 67.542336,187.289886
	C66.210236,187.289200 64.874939,187.324326 63.546673,187.247284
	C59.533569,187.014603 56.703918,185.232986 56.790924,180.890076
	C56.877697,176.558670 59.808693,174.814987 63.785152,174.739105
	C69.278595,174.634262 74.775391,174.702209 80.270752,174.700592
	C95.924316,174.695999 111.579247,174.580811 127.230446,174.771606
	C131.031570,174.817932 132.924149,173.354080 134.337097,170.003693
	C138.993011,158.963593 143.885605,148.023331 148.681381,137.042130
	C150.155930,133.665802 151.414490,129.758041 155.987991,129.954742
	C161.090012,130.174179 161.959961,134.526932 163.054428,138.399841
	C168.297897,156.954697 173.522568,175.514893 178.773788,194.067551
	C179.177719,195.494644 179.735382,196.878204 180.645554,199.506165
	C183.882324,193.766159 187.221634,189.068344 189.299225,183.866592
	C192.247986,176.483719 197.096115,174.004074 204.826172,174.564468
	C213.109177,175.164932 221.469406,174.663315 229.795364,174.721115
	C235.290222,174.759262 238.294388,177.071381 238.251511,181.039429
	C238.208511,185.019135 235.241974,187.256546 229.741669,187.292313
	C221.915207,187.343216 214.084564,187.446106 206.263138,187.242126
	C202.958969,187.155960 201.072357,188.417572 199.585922,191.261475
	C195.191132,199.669678 190.622650,207.987625 186.072922,216.314011
	C184.317352,219.526825 182.697052,223.200684 178.140411,222.776657
	C173.529526,222.347565 172.738129,218.444473 171.725891,214.893021
	C166.437424,196.338531 161.153076,177.782883 155.856812,159.230621
	C155.593079,158.306839 155.231430,157.411011 154.479568,155.248932
	C150.871719,163.337418 147.665054,170.353958 144.602966,177.433060
	C140.341125,187.285873 140.387482,187.305603 129.490753,187.305923
	C126.160286,187.306030 122.829826,187.308380 118.999512,187.310486
z"/>
</g>
</svg>